<?xml version="1.0" encoding="UTF-8" standalone="no"?>
<!-- Created with Inkscape (http://www.inkscape.org/) -->

<svg
   xmlns:dc="http://purl.org/dc/elements/1.1/"
   xmlns:cc="http://creativecommons.org/ns#"
   xmlns:rdf="http://www.w3.org/1999/02/22-rdf-syntax-ns#"
   xmlns:svg="http://www.w3.org/2000/svg"
   xmlns="http://www.w3.org/2000/svg"
   xmlns:sodipodi="http://sodipodi.sourceforge.net/DTD/sodipodi-0.dtd"
   xmlns:inkscape="http://www.inkscape.org/namespaces/inkscape"
   width="22.974411mm"
   height="19.680941mm"
   viewBox="0 0 81.405393 69.735616"
   id="svg2"
   version="1.1"
   inkscape:version="0.91 r13725"
   sodipodi:docname="logo.svg"
   inkscape:export-xdpi="77.5"
   inkscape:export-ydpi="77.5">
  <defs
     id="defs4" />
  <sodipodi:namedview
     id="base"
     pagecolor="#ffffff"
     bordercolor="#666666"
     borderopacity="1.0"
     inkscape:pageopacity="0.0"
     inkscape:pageshadow="2"
     inkscape:zoom="13.934779"
     inkscape:cx="46.443731"
     inkscape:cy="34.867805"
     inkscape:document-units="px"
     inkscape:current-layer="layer1"
     showgrid="false"
     showguides="false"
     inkscape:guide-bbox="true"
     inkscape:snap-grids="false"
     inkscape:snap-bbox="true"
     inkscape:snap-text-baseline="false"
     inkscape:bbox-paths="true"
     inkscape:bbox-nodes="true"
     inkscape:snap-bbox-edge-midpoints="true"
     inkscape:snap-bbox-midpoints="true"
     inkscape:object-paths="true"
     inkscape:snap-intersection-paths="true"
     inkscape:object-nodes="true"
     inkscape:snap-smooth-nodes="true"
     inkscape:snap-midpoints="true"
     inkscape:window-width="1920"
     inkscape:window-height="1075"
     inkscape:window-x="0"
     inkscape:window-y="0"
     inkscape:window-maximized="1"
     fit-margin-top="1"
     fit-margin-left="1"
     fit-margin-right="1"
     fit-margin-bottom="1">
    <sodipodi:guide
       position="-183.14184,8.7835916"
       orientation="0,1"
       id="guide3352" />
    <sodipodi:guide
       position="-139.23764,36.82024"
       orientation="1,0"
       id="guide3356" />
    <sodipodi:guide
       position="-175.19887,49.199769"
       orientation="1,0"
       id="guide4190" />
    <sodipodi:guide
       position="-103.39573,49.199769"
       orientation="1,0"
       id="guide4192" />
    <sodipodi:guide
       position="-139.23764,14.033021"
       orientation="0,1"
       id="guide4194" />
  </sodipodi:namedview>
  <metadata
     id="metadata7">
    <rdf:RDF>
      <cc:Work
         rdf:about="">
        <dc:format>image/svg+xml</dc:format>
        <dc:type
           rdf:resource="http://purl.org/dc/dcmitype/StillImage" />
        <dc:title />
      </cc:Work>
    </rdf:RDF>
  </metadata>
  <g
     inkscape:label="Ebene 1"
     inkscape:groupmode="layer"
     id="layer1"
     transform="translate(-266.77457,-423.0417)">
    <g
       style="font-style:normal;font-variant:normal;font-weight:normal;font-stretch:normal;font-size:40px;line-height:125%;font-family:sans-serif;-inkscape-font-specification:sans-serif;letter-spacing:0px;word-spacing:0px;fill:#999999;fill-opacity:1;stroke:none;stroke-width:1px;stroke-linecap:butt;stroke-linejoin:miter;stroke-opacity:1"
       id="text3340">
      <path
         d="m 289.53271,460.18961 0,-11.83594 3.59375,0 0,30.39062 -3.59375,0 0,-3.28125 q -1.13281,1.95313 -2.87109,2.91016 -1.71875,0.9375 -4.14062,0.9375 -3.96485,0 -6.46485,-3.16406 -2.48047,-3.16407 -2.48047,-8.32032 0,-5.15625 2.48047,-8.32031 2.5,-3.16406 6.46485,-3.16406 2.42187,0 4.14062,0.95703 1.73828,0.9375 2.87109,2.89063 z m -12.24609,7.63671 q 0,3.96485 1.62109,6.23047 1.64063,2.2461 4.49219,2.2461 2.85156,0 4.49219,-2.2461 1.64062,-2.26562 1.64062,-6.23047 0,-3.96484 -1.64062,-6.21093 -1.64063,-2.26563 -4.49219,-2.26563 -2.85156,0 -4.49219,2.26563 -1.62109,2.24609 -1.62109,6.21093 z"
         style="fill:#999999"
         id="path4147" />
    </g>
    <g
       style="font-style:normal;font-variant:normal;font-weight:normal;font-stretch:normal;font-size:40px;line-height:125%;font-family:sans-serif;-inkscape-font-specification:sans-serif;letter-spacing:0px;word-spacing:0px;fill:#999999;fill-opacity:1;stroke:none;stroke-width:1px;stroke-linecap:butt;stroke-linejoin:miter;stroke-opacity:1"
       id="text3344">
      <path
         d="m 305.74005,448.35367 3.59375,0 0,30.39062 -3.59375,0 0,-30.39062 z"
         style="fill:#999999"
         id="path4150" />
    </g>
    <g
       style="font-style:normal;font-variant:normal;font-weight:normal;font-stretch:normal;font-size:40px;line-height:125%;font-family:sans-serif;-inkscape-font-specification:sans-serif;letter-spacing:0px;word-spacing:0px;fill:#999999;fill-opacity:1;stroke:none;stroke-width:1px;stroke-linecap:butt;stroke-linejoin:miter;stroke-opacity:1"
       id="text3348">
      <path
         d="m 337.64838,467.82632 q 0,-3.96484 -1.64063,-6.21093 -1.62109,-2.26563 -4.47265,-2.26563 -2.85157,0 -4.49219,2.26563 -1.6211,2.24609 -1.6211,6.21093 0,3.96485 1.6211,6.23047 1.64062,2.2461 4.49219,2.2461 2.85156,0 4.47265,-2.2461 1.64063,-2.26562 1.64063,-6.23047 z m -12.22657,-7.63671 q 1.13282,-1.95313 2.85157,-2.89063 1.73828,-0.95703 4.14062,-0.95703 3.98438,0 6.46485,3.16406 2.5,3.16406 2.5,8.32031 0,5.15625 -2.5,8.32032 -2.48047,3.16406 -6.46485,3.16406 -2.40234,0 -4.14062,-0.9375 -1.71875,-0.95703 -2.85157,-2.91016 l 0,3.28125 -3.61328,0 0,-30.39062 3.61328,0 0,11.83594 z"
         style="fill:#999999"
         id="path4153" />
    </g>
    <path
       style="fill:none;fill-rule:evenodd;stroke:#999999;stroke-width:2.48031497;stroke-linecap:round;stroke-linejoin:round;stroke-miterlimit:4;stroke-dasharray:none;stroke-opacity:1"
       d="m 271.5757,441.57755 71.80314,0 -35.84191,-13.75239 z"
       id="path3354"
       inkscape:connector-curvature="0"
       sodipodi:nodetypes="cccc" />
    <path
       style="fill:none;fill-rule:evenodd;stroke:#999999;stroke-width:2.48031497;stroke-linecap:round;stroke-linejoin:round;stroke-miterlimit:4;stroke-dasharray:none;stroke-opacity:1"
       d="m 271.5757,487.99373 71.80314,0"
       id="path4188"
       inkscape:connector-curvature="0"
       sodipodi:nodetypes="cc" />
  </g>
</svg>
